<?xml version="1.0" standalone="no"?><!DOCTYPE svg PUBLIC "-//W3C//DTD SVG 1.1//EN" "http://www.w3.org/Graphics/SVG/1.1/DTD/svg11.dtd"><svg t="1607089299422" class="icon" viewBox="0 0 1024 1024" version="1.1" xmlns="http://www.w3.org/2000/svg" p-id="4835" xmlns:xlink="http://www.w3.org/1999/xlink" width="200" height="200"><defs><style type="text/css"></style></defs><path d="M888.0128 792.0128H199.9872V167.936a8.0384 8.0384 0 0 0-7.9872-7.9872H135.9872a8.0384 8.0384 0 0 0-7.9872 7.9872V856.064c0 4.4032 3.584 7.9872 7.9872 7.9872h752.0256c4.4032 0 7.9872-3.584 7.9872-7.9872v-56.0128a8.0384 8.0384 0 0 0-7.9872-7.9872zM288 711.9872h56.0128c4.4032 0 7.9872-3.584 7.9872-7.9872v-144.0256a8.0384 8.0384 0 0 0-7.9872-7.9872H288a8.0384 8.0384 0 0 0-7.9872 7.9872v144.0256c0 4.4032 3.584 7.9872 7.9872 7.9872z m152.0128 0h56.0128c4.352 0 7.9872-3.584 7.9872-7.9872V384a8.0384 8.0384 0 0 0-7.9872-7.9872H440.0128a8.0384 8.0384 0 0 0-7.9872 7.9872v320c0 4.4032 3.584 7.9872 7.9872 7.9872z m152.0128 0h55.9616c4.4032 0 7.9872-3.584 7.9872-7.9872V461.9776a8.0384 8.0384 0 0 0-7.9872-7.9872h-56.0128a8.0384 8.0384 0 0 0-7.9872 7.9872v242.0224c0 4.4032 3.584 7.9872 7.9872 7.9872z m151.9616 0h56.0128c4.4032 0 7.9872-3.584 7.9872-7.9872V303.9744a8.0384 8.0384 0 0 0-7.9872-7.9872h-56.0128a8.0384 8.0384 0 0 0-7.9872 8.0384v399.9744c0 4.4032 3.584 7.9872 7.9872 7.9872z" fill="#595959" p-id="4836"></path></svg>