<?xml version="1.0" standalone="no"?><!DOCTYPE svg PUBLIC "-//W3C//DTD SVG 1.1//EN" "http://www.w3.org/Graphics/SVG/1.1/DTD/svg11.dtd"><svg t="1607089283017" class="icon" viewBox="0 0 1024 1024" version="1.1" xmlns="http://www.w3.org/2000/svg" p-id="4077" xmlns:xlink="http://www.w3.org/1999/xlink" width="200" height="200"><defs><style type="text/css"></style></defs><path d="M458.666667 172.8l388.266666 388.266667c2.133333 2.133333 4.266667 6.4 4.266667 10.666666s-2.133333 6.4-4.266667 10.666667l-264.533333 264.533333c-2.133333 2.133333-6.4 4.266667-10.666667 4.266667s-6.4-2.133333-10.666666-4.266667l-388.266667-388.266666v-270.933334c0-4.266667 2.133333-6.4 4.266667-10.666666s6.4-4.266667 10.666666-4.266667h270.933334z m-102.4 100.266667c-10.666667-10.666667-25.6-17.066667-40.533334-17.066667s-29.866667 6.4-40.533333 17.066667-17.066667 25.6-17.066667 40.533333 6.4 29.866667 17.066667 40.533333 25.6 17.066667 40.533333 17.066667a58.282667 58.282667 0 0 0 57.6-57.6c-2.133333-14.933333-6.4-29.866667-17.066666-40.533333z" p-id="4078"></path></svg>